<?xml version="1.0" encoding="UTF-8" standalone="no"?>
<!-- Created with Inkscape (http://www.inkscape.org/) -->

<svg
   xmlns:dc="http://purl.org/dc/elements/1.1/"
   xmlns:cc="http://creativecommons.org/ns#"
   xmlns:rdf="http://www.w3.org/1999/02/22-rdf-syntax-ns#"
   xmlns:svg="http://www.w3.org/2000/svg"
   xmlns="http://www.w3.org/2000/svg"
   xmlns:xlink="http://www.w3.org/1999/xlink"
   xmlns:sodipodi="http://sodipodi.sourceforge.net/DTD/sodipodi-0.dtd"
   xmlns:inkscape="http://www.inkscape.org/namespaces/inkscape"
   sodipodi:docname="reggie.svg"
   inkscape:version="0.47pre4 r22446"
   version="1.1"
   id="svg2"
   height="539.70276"
   width="303.0043">
  <sodipodi:namedview
     id="base"
     pagecolor="#ffffff"
     bordercolor="#666666"
     borderopacity="1.0"
     inkscape:pageopacity="0.0"
     inkscape:pageshadow="2"
     inkscape:zoom="1.2158454"
     inkscape:cx="151.50215"
     inkscape:cy="269.85137"
     inkscape:document-units="px"
     inkscape:current-layer="layer1"
     showgrid="false"
     inkscape:window-width="1857"
     inkscape:window-height="1179"
     inkscape:window-x="61"
     inkscape:window-y="19"
     inkscape:window-maximized="0" />
  <defs
     id="defs4">
    <linearGradient
       id="linearGradient5254">
      <stop
         style="stop-color:#ffe805;stop-opacity:1;"
         offset="0"
         id="stop5256" />
      <stop
         style="stop-color:#ff0010;stop-opacity:1;"
         offset="1"
         id="stop5258" />
    </linearGradient>
    <linearGradient
       inkscape:collect="always"
       xlink:href="#linearGradient5254"
       id="linearGradient5278"
       x1="580.24005"
       y1="393.19846"
       x2="563.80353"
       y2="420.32346"
       gradientUnits="userSpaceOnUse"
       gradientTransform="matrix(1.1517745,0,0,1.1517745,-86.030947,-62.599127)" />
    <linearGradient
       inkscape:collect="always"
       xlink:href="#linearGradient5254"
       id="linearGradient5284"
       gradientUnits="userSpaceOnUse"
       gradientTransform="matrix(1.1517745,0,0,1.1517745,-86.030947,-62.599127)"
       x1="580.24005"
       y1="393.19846"
       x2="563.80353"
       y2="420.32346" />
  </defs>
  <metadata
     id="metadata7">
    <rdf:RDF>
      <cc:Work
         rdf:about="">
        <dc:format>image/svg+xml</dc:format>
        <dc:type
           rdf:resource="http://purl.org/dc/dcmitype/StillImage" />
        <dc:title />
      </cc:Work>
    </rdf:RDF>
  </metadata>
  <g
     id="layer1"
     inkscape:groupmode="layer"
     inkscape:label="Layer 1"
     transform="translate(-289.19549,-91.250493)">
    <g
       id="g5280">
      <path
         id="path5252"
         d="m 546.5836,445.56909 c -0.90927,-2.36951 2.14192,-10.25358 8.30993,-21.47231 13.65012,-24.82755 29.9264,-47.92318 32.18291,-45.66668 1.05987,1.05986 -3.11946,14.6465 -7.53861,24.5074 -7.62408,17.01241 -22.1254,37.88105 -29.46013,42.39569 -2.70578,1.66545 -2.93949,1.68123 -3.4941,0.2359 z"
         style="opacity:0.72532187;fill:url(#linearGradient5284);fill-opacity:1;stroke:none" />
      <path
         style="fill:#000000"
         d="m 400.18925,628.92434 c -2.37786,-3.84741 -1.2812,-8.87545 2.43707,-11.17343 4.54908,-2.81156 4.6779,-6.6874 0.39368,-11.84943 -3.50165,-4.2193 -7.21145,-30.39078 -8.24397,-58.1589 l -1.87732,-50.48757 -14.28423,1.98619 c -18.24955,2.5376 -17.97491,-3.13028 1.54336,-31.85413 l 15.82766,-23.29242 -18.84319,-13.41751 c -22.5315,-16.04389 -36.10945,-56.45771 -25.57894,-76.13409 5.57274,-10.41278 3.84046,-15.13591 -9.90545,-27.00789 -36.08745,-31.16755 -57.33325,-101.8535 -51.50585,-171.36263 4.276,-51.00395 11.91753,-63.458178 37.29713,-60.787478 l 18.16316,1.91135 2.03005,63.485488 c 1.81119,56.63973 4.5059,69.13331 24.98957,115.861 12.6276,28.80655 20.51076,52.37559 17.51794,52.37559 -2.99286,0 -15.74025,-25.73141 -28.32766,-57.18078 -20.34717,-50.83698 -22.88621,-63.51487 -22.88621,-114.27386 l 0,-57.09313 -15.31335,0 c -12.75965,0 -15.97327,3.97017 -19.27031,23.80702 -13.46759,81.02783 2.13602,154.74128 40.97744,193.58273 21.4099,21.40976 23.69318,26.53793 19.04012,42.7621 -7.39464,25.78372 21.95998,72.17919 51.76413,81.8139 22.95474,7.42067 62.37319,1.41118 78.49218,-11.96638 22.93218,-19.03197 27.70592,-88.75454 6.07685,-88.75454 -12.42211,0 -11.90436,-5.42579 3.93442,-41.23209 l 13.3364,-30.14902 -13.60161,-41.43344 C 486.86217,175.56166 460.9168,122.71351 445.30327,108.58349 l -12.28581,-11.118488 -8.9494,12.238988 c -21.19891,28.99133 -7.23242,85.16219 36.0215,144.87252 11.51512,15.89613 18.51455,33.44789 18.51455,46.42685 l 0,20.86828 -23.80706,-3.67375 c -31.92709,-4.92678 -34.21233,-8.22509 -5.69858,-8.22509 l 23.39896,0 -4.03891,-17.4585 c -2.22144,-9.6022 -12.5545,-28.35217 -22.96236,-41.66661 -20.01731,-25.60755 -43.09071,-83.15088 -43.05086,-107.36571 0.0142,-7.94358 5.74115,-23.82041 12.72915,-35.28182 10.58275,-17.357348 14.70479,-19.768928 24.67286,-14.434158 16.59217,8.879828 48.71817,58.968028 63.97408,99.743118 20.23209,54.07511 22.58589,81.5388 9.47929,110.60398 l -11.44601,25.38268 13.76889,9.64417 c 16.73686,11.72294 17.89069,36.45736 3.39093,72.69566 -7.23287,18.0767 -8.36255,27.95272 -3.72747,32.58776 9.49948,9.49948 17.71674,2.53819 42.22094,-35.76812 27.49982,-42.98914 38.84248,-50.97228 33.34132,-23.46602 -5.84228,29.2111 -42.92914,80.32304 -58.28251,80.32304 -16.18008,0 -20.21276,31.65334 -9.0926,71.37062 7.33953,26.21431 6.94681,28.30474 -7.23096,38.48585 -8.24563,5.92126 -19.37341,12.70776 -24.72843,15.08111 -5.86449,2.59915 -0.90009,4.45402 12.48356,4.66423 17.18458,0.26989 20.0619,-1.14498 12.69706,-6.24361 -7.85454,-5.43769 -7.29851,-6.23956 3.17431,-4.57727 21.21509,3.36741 8.00879,14.44461 -19.04568,15.97526 -38.58782,2.18308 -62.69547,9.05367 -70.90211,20.20669 -4.07915,5.54363 -9.55474,7.94125 -12.16809,5.328 -2.61324,-2.61335 -1.4184,-4.75145 2.65525,-4.75145 4.07362,0 7.40664,-2.85686 7.40664,-6.34855 0,-11.78982 -13.06732,-6.45371 -18.2047,7.43394 -3.126,8.45018 -6.7712,11.0761 -9.42181,6.78725 z m 71.11826,-32.54653 c 4.71615,-2.98861 15.10202,-21.49374 23.07971,-41.12247 11.79311,-29.01637 13.88521,-43.40863 11.19032,-76.98162 l -3.31457,-41.29301 -21.80931,13.47892 c -17.20629,10.63401 -27.74244,12.66564 -49.92074,9.62582 -19.97081,-2.73739 -28.28402,-1.59026 -28.70759,3.96113 -1.66651,21.84105 2.11898,128.93874 4.70545,133.12372 4.0631,6.57416 54.11825,5.9617 64.77673,-0.79249 z m -45.70123,-24.55347 c -1.6274,-2.63311 5.78841,-4.77575 16.47955,-4.76137 11.0127,0.0142 20.75678,-3.83097 22.47978,-8.87229 2.21429,-6.47871 -0.74804,-7.90746 -10.89405,-5.25426 -21.23355,5.55273 -23.22084,-11.34394 -4.01819,-34.16494 18.80586,-22.34952 16.88214,-32.97275 -2.75304,-15.20317 -7.89039,7.14069 -12.73602,8.59359 -12.73602,3.81879 0,-4.23896 -2.85686,-5.94156 -6.34855,-3.78354 -3.49169,2.15797 -6.34858,0.75235 -6.34858,-3.12356 0,-9.15199 43.2882,-27.24534 54.70375,-22.86475 14.01087,5.37646 10.28645,20.6585 -10.92153,44.81301 l -19.7033,22.44086 19.7033,0 c 22.67465,0 27.00715,14.68995 7.42353,25.17084 -14.2979,7.65195 -42.77308,8.73154 -47.06665,1.78438 z m -35.88184,-94.36433 c 0,-1.74584 -2.85682,-1.40866 -6.34852,0.74935 -3.49173,2.15798 -6.34855,5.35198 -6.34855,7.09786 0,1.74582 2.85682,1.40867 6.34855,-0.74931 3.4917,-2.15801 6.34852,-5.35205 6.34852,-7.0979 z m 187.23991,-69.89229 c 5.85758,-12.34394 9.22945,-23.86422 7.49306,-25.60061 -3.31,-3.30996 -36.01924,49.26844 -36.01924,57.89889 0,10.07779 18.19121,-10.51886 28.52618,-32.29828 z M 425.11659,393.27276 c -1.96704,-3.18281 0.69243,-7.42506 5.90989,-9.42716 5.21749,-2.00214 9.48641,-1.04166 9.48641,2.13439 0,8.60576 -11.28206,13.9497 -15.3963,7.29277 z m -9.99793,-35.68585 c 0,-1.74584 1.42843,-3.17427 3.17428,-3.17427 1.74584,0 3.17424,1.42843 3.17424,3.17427 0,1.74589 -1.4284,3.17428 -3.17424,3.17428 -1.74585,0 -3.17428,-1.42839 -3.17428,-3.17428 z m 38.09129,0 c 0,-1.74584 1.42843,-3.17427 3.17424,-3.17427 1.74588,0 3.17431,1.42843 3.17431,3.17427 0,1.74589 -1.42843,3.17428 -3.17431,3.17428 -1.74581,0 -3.17424,-1.42839 -3.17424,-3.17428 z m -49.06903,-38.75258 c 2.10956,-2.1096 7.58522,-2.33514 12.16812,-0.50093 5.06442,2.02661 3.56013,3.53101 -3.83564,3.83561 -6.69236,0.27556 -10.442,-1.22484 -8.33248,-3.33436 z"
         id="path3217" />
    </g>
  </g>
</svg>
